# xmcd CD database file
#
# Track frame offsets:
#	150
#	20349
#	34546
#	52628
#	80965
#	101058
#	117381
#	132873
#	151698
#	175542
#	188936
#	198251
#
# Disc length: 2916 seconds
#
# Revision: 0
# Processed by: cddbd v1.5.2PL0 Copyright (c) Steve Scherf et al.
# Submitted via: CDex 1.51
#
DISCID=8e0b620c
DTITLE=Jimmy Roberts and The Triple Crown Blues Band - Voodoo Blues
DYEAR=1997
DGENRE=Blues
TTITLE0=Rock Me Baby
TTITLE1=Walk That Walk
TTITLE2=Voodoo Blues
TTITLE3=Someday Baby
TTITLE4=Waxin'
TTITLE5=Big Boss Man
TTITLE6=Johnny Winter Tribute
TTITLE7=Business Man
TTITLE8=It's Only Love
TTITLE9=Play With You Poodle
TTITLE10=Hooked On You
TTITLE11=Mother 'n' Law Blues
EXTD=YEAR: 1997
EXTT0=
EXTT1=
EXTT2=
EXTT3=
EXTT4=
EXTT5=
EXTT6=
EXTT7=
EXTT8=
EXTT9=
EXTT10=
EXTT11=
PLAYORDER=
